<?xml version="1.0" encoding="UTF-8"?>
<svg version="1.1" viewBox="0 0 2048 2048" width="512" height="512" xmlns="http://www.w3.org/2000/svg">
<path transform="translate(1346)" d="m0 0h86l55 7 35 6 42 10 33 10 30 11 29 12 24 11 19 10 25 14 19 12 21 14 11 8 16 12 14 11 15 13 10 9 8 7 8 8 8 7 23 23 9 11 10 11 11 14 12 15 13 19 8 11 13 21 11 19 10 18 14 28 12 28 10 26 10 30 8 29 7 30 5 27 8 55v102l-7 51-6 35-9 38-13 42-12 32-13 30-11 23-12 22-16 27-11 17-9 13-13 18-12 15-9 11-9 10-9 11-14 14-1 2h-2l-2 4-12 12-8 7-7 7-11 9-10 9-11 9-13 10-19 14-29 19-15 9-21 12-23 12-33 15-28 11-35 12-41 11-39 8-33 5-43 4-27 1h-21l-30-1-42-4-38-6-29-6-42-11-9-3h-5l-151 151-11 7-12 4-12 1h-114v107l-1 18-5 13-7 12-10 10-14 8-9 3-7 1h-13l-30-3-51-6-10-1-4 40-6 61-2 24-4 16-8 15-9 10-13 8-11 4-17 3-76 7-38 4h-5l5 42 4 34 1 12v22l-3 9-7 14-12 13-40 40-6 5-6 7-8 7-23 23-14 9-10 4-1 1h-370l-17-9-10-9-8-10-7-14-2-7v-363l7-17 8-10 14-14 3-4h2l1-3 6-5 5-6 7-6 3-4h2l1-3 6-5 3-4h2l2-4 636-636h2l2-4h2v-2l8-7 37-37 1-4-10-34-7-29-7-38-4-31-2-21-1-17v-68l3-36 6-42 8-39 10-37 12-36 13-33 12-26 13-26 13-23 13-21 16-24 13-17 12-16 12-14 13-15 14-15 24-24h2v-2l8-7 11-10 11-9 12-10 17-13 17-12 18-12 19-12 25-14 23-12 19-9 31-13 34-12 30-9 28-7 42-8 42-6zm207 309-23 2-26 6-16 6-16 8-15 9-14 11-13 12-13 14-12 17-10 18-8 19-6 23-3 19v33l3 20 6 22 6 15 8 16 7 11 9 12 9 10 9 9 11 9 12 9 13 8 16 8 19 7 20 5 16 2h33l14-2 21-5 19-7 20-10 15-10 13-11 12-11 9-11 8-10 8-13 8-15 7-19 4-14 3-13 1-9v-36l-2-16-5-20-7-19-12-23-10-14-8-10-14-15-13-11-15-10-21-11-22-8-22-5-23-2z" fill="#F7E611"/>
</svg>
